<svg width="30" height="30" viewBox="0 0 30 30" fill="none" xmlns="http://www.w3.org/2000/svg">
<path d="M24.7499 10.0063C24.9239 10.0063 25.0844 10.0663 25.2119 10.1668L25.3124 10.2613L25.3379 10.2913C26.2094 11.3714 26.7641 12.6721 26.9403 14.0487C27.1164 15.4253 26.9072 16.8238 26.3359 18.0886C25.7645 19.3533 24.8534 20.4347 23.704 21.2125C22.5546 21.9902 21.212 22.4338 19.8254 22.4939L19.4999 22.4999H10.4999C10.3483 22.4999 10.1968 22.4954 10.0454 22.4864L12.5309 24.9689C12.6549 25.0931 12.7314 25.257 12.747 25.4319C12.7627 25.6067 12.7164 25.7816 12.6164 25.9259L12.5309 26.0309C12.4066 26.1549 12.2428 26.2313 12.0679 26.247C11.893 26.2626 11.7182 26.2164 11.5739 26.1164L11.4689 26.0309L7.71893 22.2809C7.59492 22.1566 7.51844 21.9927 7.50281 21.8178C7.48719 21.643 7.53341 21.4681 7.63343 21.3238L7.71893 21.2188L11.4689 17.4689C11.6012 17.336 11.7785 17.2575 11.9658 17.2488C12.1531 17.2401 12.3368 17.3019 12.4808 17.422C12.6248 17.5421 12.7186 17.7118 12.7437 17.8976C12.7688 18.0834 12.7234 18.2719 12.6164 18.4259L12.5309 18.5309L10.0754 20.9848L10.2854 20.9969L10.4999 20.9998H19.4999C20.633 21 21.7429 20.6792 22.7013 20.0748C23.6597 19.4703 24.4273 18.6069 24.9154 17.5843C25.4034 16.5617 25.5919 15.4219 25.4591 14.2966C25.3263 13.1714 24.8776 12.1067 24.1649 11.2258C24.0769 11.1156 24.0217 10.9827 24.0058 10.8425C23.9899 10.7022 24.0138 10.5604 24.0749 10.4331C24.136 10.3059 24.2318 10.1985 24.3512 10.1233C24.4706 10.0481 24.6088 10.008 24.7499 10.0078V10.0063ZM17.4689 3.96885C17.5932 3.84484 17.7571 3.76836 17.9319 3.75273C18.1068 3.73711 18.2816 3.78333 18.4259 3.88335L18.5309 3.96885L22.2809 7.71885L22.3664 7.82385C22.4529 7.9491 22.4992 8.09767 22.4992 8.24985C22.4992 8.40203 22.4529 8.5506 22.3664 8.67585L22.2809 8.78085L18.5309 12.5308L18.4259 12.6164C18.3007 12.7028 18.1521 12.7491 17.9999 12.7491C17.8478 12.7491 17.6992 12.7028 17.5739 12.6164L17.4689 12.5308L17.3834 12.4258C17.297 12.3006 17.2507 12.152 17.2507 11.9998C17.2507 11.8477 17.297 11.6991 17.3834 11.5738L17.4689 11.4688L19.9244 9.01485L19.7144 9.00285L19.4999 8.99985H10.4999C9.3659 8.99978 8.25507 9.3211 7.29618 9.92655C6.3373 10.532 5.56964 11.3968 5.08217 12.4207C4.59471 13.4446 4.4074 14.5857 4.54195 15.7118C4.67651 16.8378 5.12742 17.9026 5.84243 18.7829C5.96198 18.9422 6.01333 19.1425 5.9852 19.3397C5.95707 19.5369 5.85176 19.7148 5.69243 19.8343C5.61354 19.8935 5.52376 19.9366 5.42822 19.9611C5.33268 19.9856 5.23326 19.9911 5.13562 19.9771C4.93842 19.949 4.76048 19.8437 4.64093 19.6844C3.77547 18.6026 3.22653 17.3023 3.05498 15.9276C2.88343 14.553 3.09598 13.1576 3.66905 11.8964C4.24212 10.6351 5.15332 9.55726 6.3016 8.78227C7.44988 8.00728 8.79038 7.56548 10.1744 7.50585L10.4999 7.49985H19.4999C19.6529 7.49985 19.8044 7.50435 19.9544 7.51335L17.4689 5.03085L17.3834 4.92585C17.2834 4.78155 17.2372 4.60674 17.2528 4.43186C17.2684 4.25698 17.3449 4.09313 17.4689 3.96885Z" fill="#F6F6F6"/>
</svg>
