<svg width="46" height="46" viewBox="0 0 46 46" fill="none" xmlns="http://www.w3.org/2000/svg">
<path fill-rule="evenodd" clip-rule="evenodd" d="M3.83331 23.011C3.83331 12.4319 12.4361 3.83325 23 3.83325C33.5638 3.83325 42.1666 12.4319 42.1666 23.011C42.1666 33.5679 33.5638 42.1666 23 42.1666C12.4361 42.1666 3.83331 33.5679 3.83331 23.011ZM30.0302 24.9509C30.2337 24.7475 30.4927 24.4332 30.5482 24.3592C30.8442 23.9709 30.9922 23.4901 30.9922 23.0112C30.9922 22.473 30.8257 21.9738 30.5112 21.5669C30.4854 21.5412 30.4349 21.4862 30.3691 21.4146C30.2461 21.2807 30.0694 21.0884 29.9007 20.9197C28.3836 19.2925 24.4245 16.6297 22.3524 15.816C22.0379 15.6884 21.2424 15.4092 20.8168 15.3907C20.4098 15.3907 20.0213 15.4832 19.6513 15.6681C19.1888 15.927 18.8188 16.3338 18.6153 16.8146C18.4858 17.1474 18.2823 18.146 18.2823 18.1645C18.0787 19.2555 17.9677 21.0307 17.9677 22.9908C17.9677 24.8603 18.0787 26.5597 18.2453 27.6692C18.2498 27.6738 18.2657 27.7531 18.2905 27.8764C18.3656 28.2512 18.5222 29.0319 18.6893 29.352C19.0963 30.1286 19.8918 30.6094 20.7428 30.6094H20.8168C21.3719 30.5909 22.5374 30.1101 22.5374 30.0916C24.4985 29.278 28.3651 26.7446 29.9192 25.0619L30.0302 24.9509Z" fill="#8C84E2"/>
</svg>
